<svg version="1.2" baseProfile="tiny-ps" xmlns="http://www.w3.org/2000/svg" viewBox="0 0 1200 1200" width="32" height="32">
	<title>Favicon-ai</title>
	<style>
		tspan { white-space:pre }
		.shp0 { fill: none;stroke: #faa819;stroke-width: 108.035 } 
		.shp1 { fill: #4d4c4d } 
	</style>
	<g id="Layer 1">
		<g id="&lt;Group&gt;">
			<path id="&lt;Path&gt;" class="shp0" d="M912.12 1039.87C720.73 1157.28 512.64 1157.28 287.88 1039.87" />
			<path id="&lt;Compound Path&gt;" fill-rule="evenodd" class="shp1" d="M826.19 496.08C875.6 545.1 900.32 604.19 900.32 673.36C900.7 742.53 876.58 801.83 827.98 851.23C778.95 900.26 724.99 924.96 666.11 925.36L666.11 925.95L299.68 925.95L299.68 46.05L615.11 46.05C693.38 46.45 757.02 70.96 806.03 119.57C854.65 168.19 879.16 226.88 879.56 295.67C879.94 364.44 855.83 423.55 807.22 472.95C801.68 478.1 800.69 479.28 804.26 476.5C807.01 478.1 814.32 484.61 826.19 496.08ZM423 169.37L423 423.74L629.94 423.74C664.71 423.36 694.36 410.69 718.88 385.8C743.77 361.29 756.22 331.44 756.22 296.26C755.82 261.08 743.18 231.25 718.29 206.74C693.77 181.82 663.93 169.37 628.74 169.37L423 169.37ZM650.69 802.02C685.86 802.02 715.71 789.37 740.22 764.08C765.13 739.17 777.38 709.13 776.98 673.95C776.98 638.79 764.33 608.94 739.04 584.43C714.51 559.52 684.68 547.06 649.5 547.06L423 547.06L423 802.02L650.69 802.02Z" />
		</g>
	</g>
</svg>