<svg version="1.2" baseProfile="tiny-ps" xmlns="http://www.w3.org/2000/svg" viewBox="0 0 561 153" width="561" height="153">
	<title>Logo_babelus-ai</title>
	<style>
		tspan { white-space:pre }
		.shp0 { fill: none;stroke: #faa819;stroke-width: 14.081 } 
		.shp1 { fill: #4d4c4d } 
	</style>
	<g id="Layer 1">
		<g id="&lt;Group&gt;">
			<path id="&lt;Path&gt;" class="shp0" d="M530.28 133.75C505.33 149.06 478.21 149.06 448.91 133.75" />
			<path id="&lt;Compound Path&gt;" fill-rule="evenodd" class="shp1" d="M69.45 62.88C75.89 69.26 79.11 76.97 79.11 85.98C79.16 95 76.02 102.73 69.68 109.17C63.29 115.56 56.26 118.78 48.58 118.83L48.58 118.9L0.82 118.9L0.82 4.22L41.94 4.22C52.14 4.27 60.43 7.47 66.82 13.8C73.16 20.14 76.35 27.79 76.4 36.75C76.45 45.72 73.31 53.42 66.97 59.86C66.25 60.53 66.12 60.68 66.59 60.32C66.95 60.53 67.9 61.38 69.45 62.88ZM16.9 20.29L16.9 53.45L43.87 53.45C48.4 53.4 52.26 51.75 55.46 48.5C58.7 45.31 60.33 41.42 60.33 36.83C60.28 32.24 58.63 28.36 55.38 25.16C52.19 21.92 48.3 20.29 43.71 20.29L16.9 20.29ZM46.57 102.75C51.16 102.75 55.05 101.1 58.24 97.81C61.49 94.56 63.08 90.64 63.03 86.06C63.03 81.48 61.38 77.59 58.09 74.39C54.89 71.14 51 69.52 46.42 69.52L16.9 69.52L16.9 102.75L46.57 102.75Z" />
			<path id="&lt;Compound Path&gt;" fill-rule="evenodd" class="shp1" d="M132.14 119.99C120.44 119.99 110.42 115.84 102.08 107.54C93.78 99.2 89.64 89.18 89.64 77.48C89.64 65.73 93.78 55.69 102.08 47.34C110.42 39.05 120.44 34.9 132.14 34.9C143.94 34.9 152.9 37.96 159.03 44.1L159.03 35.9L174.72 35.9L174.72 118.9L159.03 118.9L159.03 110.79C152.9 116.92 143.94 119.99 132.14 119.99ZM132.14 50.59C124.72 50.59 118.41 53.24 113.21 58.55C107.95 63.75 105.32 70.06 105.32 77.48C105.32 84.9 107.95 91.21 113.21 96.42C118.41 101.67 124.72 104.3 132.14 104.3C139.56 104.3 145.9 101.67 151.15 96.42C156.41 91.21 159.03 84.9 159.03 77.48C159.03 70.06 156.41 63.75 151.15 58.55C145.9 53.24 139.56 50.59 132.14 50.59Z" />
			<path id="&lt;Compound Path&gt;" fill-rule="evenodd" class="shp1" d="M276.37 77.4C276.37 89.1 272.22 99.12 263.93 107.47C255.58 115.81 245.56 119.99 233.86 119.99C222.07 119.99 213.1 116.89 206.97 110.71L206.97 118.9L191.28 118.9L191.28 0.05L206.97 0.05L206.97 44.02C213.1 37.89 222.07 34.82 233.86 34.82C245.56 34.82 255.58 38.97 263.93 47.26C272.22 55.61 276.37 65.66 276.37 77.4ZM260.68 77.56C260.68 70.09 258.03 63.75 252.72 58.55C247.52 53.24 241.18 50.59 233.71 50.59C226.29 50.59 219.95 53.24 214.7 58.55C209.44 63.75 206.82 70.09 206.82 77.56C206.82 84.98 209.44 91.32 214.7 96.57C219.95 101.83 226.29 104.45 233.71 104.45C241.18 104.45 247.52 101.83 252.72 96.57C258.03 91.32 260.68 84.98 260.68 77.56Z" />
			<path id="&lt;Compound Path&gt;" fill-rule="evenodd" class="shp1" d="M328.69 34.9C340.38 34.9 350.4 39.05 358.75 47.34C367.05 55.69 371.2 65.71 371.2 77.4L371.04 81.81L302.1 81.81C303.13 87.89 305.94 93.02 310.53 97.19C315.63 101.93 321.68 104.3 328.69 104.3C333.74 104.3 338.43 102.96 342.76 100.28C346.93 97.7 350.43 93.71 353.27 88.3L367.64 94.56C363.47 102.85 358.03 109.14 351.33 113.42C344.43 117.8 336.88 119.99 328.69 119.99C316.99 119.99 306.97 115.84 298.63 107.54C290.28 99.2 286.11 89.15 286.11 77.4C286.11 65.71 290.28 55.69 298.63 47.34C306.97 39.05 316.99 34.9 328.69 34.9ZM353.11 66.12C351.26 62.21 348.34 58.73 344.38 55.69C339.69 52.29 334.46 50.59 328.69 50.59C322.87 50.59 317.64 52.29 313 55.69C309.55 58.01 306.61 61.48 304.19 66.12L353.11 66.12Z" />
			<path id="&lt;Compound Path&gt;" class="shp1" d="M384.65 0.05L400.41 0.05L400.41 118.9L384.65 118.9L384.65 0.05Z" />
			<path id="&lt;Compound Path&gt;" class="shp1" d="M417.57 35.9L433.26 35.9L433.26 85.44C433.26 90.64 435.11 95.08 438.82 98.73C442.48 102.44 446.91 104.3 452.12 104.3C457.32 104.3 461.75 102.44 465.41 98.73C469.12 95.08 470.97 90.64 470.97 85.44L470.97 35.9L486.66 35.9L486.66 118.9L470.97 118.9L470.97 114.5C465.66 118.05 459.38 119.88 452.12 119.99C442.63 119.99 434.49 116.61 427.69 109.86C420.94 103.06 417.57 94.92 417.57 85.44L417.57 35.9Z" />
			<path id="&lt;Compound Path&gt;" class="shp1" d="M531.66 119.99C524.75 119.93 518.49 118.29 512.88 115.04C506.08 111.02 501.39 104.61 498.81 95.8L513.88 91.47C515.33 96.36 517.77 99.79 521.23 101.75C524.26 103.4 527.77 104.25 531.74 104.3C532.2 104.3 532.73 104.27 533.32 104.22C533.91 104.17 534.54 104.09 535.21 103.99C536.81 103.73 538.25 103.29 539.54 102.67C542.94 101.08 544.82 98.32 545.18 94.41C545.29 92.65 544.74 91.08 543.56 89.69C541.34 87.06 537.53 85.6 532.12 85.29C519.81 84.46 510.92 81.32 505.46 75.86C503.24 73.64 501.65 71.09 500.67 68.21C499.94 65.99 499.59 63.65 499.59 61.17C499.59 53.04 502.78 46.46 509.17 41.47C514.78 37.09 521.61 34.9 529.65 34.9C539.13 34.9 547.04 38.27 553.37 45.02C556.41 48.11 559.02 52.29 561.18 57.54L546.57 63.03L544.72 59.47C543.95 58.14 543.04 56.9 542.01 55.77C538.61 52.31 534.44 50.59 529.49 50.59C528.51 50.64 527.69 50.72 527.02 50.82C525.32 51.03 523.7 51.44 522.15 52.06C517.57 53.86 515.27 56.9 515.27 61.17C515.27 63.7 517.05 65.71 520.61 67.2C523.7 68.44 527.89 69.24 533.2 69.6C538.61 69.96 543.35 71.2 547.42 73.31C550.62 74.9 553.3 76.97 555.46 79.49C559.53 84.18 561.31 89.56 560.79 95.64C560.17 103.53 556.82 109.68 550.75 114.11C545.44 118.03 539.1 119.99 531.74 119.99L531.66 119.99Z" />
		</g>
	</g>
</svg>